<svg width="85" height="55" xmlns="http://www.w3.org/2000/svg" viewBox="0 0 85 55">
  <title>Yandex wallet</title>
  <g>
    <rect fill="none" id="canvas_background" height="57" width="87" y="-1" x="-1"/>
  </g>
  <g>
    <path stroke="null" id="svg_2" fill="#f37721" d="m85,52.136c0,1.305 -1.16,2.364 -2.593,2.364l-79.814,0c-1.432,0 -2.593,-1.059 -2.593,-2.364l0,-49.271c0,-1.306 1.161,-2.365 2.593,-2.365l79.814,0c1.433,0 2.593,1.059 2.593,2.365l0,49.271z"/>
    <polygon id="svg_4" points="69.126,28.887 62.673,28.887 62.673,22.729 61.69,22.729 61.69,28.887 61.663,28.887     61.663,29.832 61.69,29.832 61.69,45.546 62.673,45.546 62.673,29.832 69.126,29.832   " fill="#ffffff"/>
    <path id="svg_5" fill="#ffffff" d="m82.884,24.565l-0.62,0l0,9.206l-12.254,0c-0.229,0 -0.413,-0.186 -0.413,-0.412s0.185,-0.413 0.413,-0.413l11.402,0l0,-9.467c0,-0.132 -0.106,-0.239 -0.239,-0.239c0,0 -3.165,0.188 -6.337,0.516c-3.577,0.37 -5.001,0.604 -5.367,0.772c-0.4,0.185 -0.675,0.616 -0.675,1.202l0,8.146c0,0.396 0.321,0.717 0.717,0.717l13.373,0c0.133,0 0.239,-0.105 0.239,-0.238l0,-9.55c0,-0.134 -0.106,-0.24 -0.239,-0.24z"/>
    <path id="svg_6" fill="#FFFFFF" d="m77.435,30.233c0,0 2.296,0 3.083,0c1.078,0 2.605,0.287 2.605,1.931c0,0 0.377,-0.677 0.377,-0.974c0,-0.183 0,-2.532 0,-2.738c0,-0.431 -0.251,-1.595 -2.44,-1.595c-1.47,0 -3.625,0 -3.625,0l-0.637,1.195c0,0 -0.068,0.366 0.101,0.8c0.167,0.432 0.536,1.381 0.536,1.381z"/>
    <path id="svg_7" fill="#ffffff" d="m77.435,29.694l3.58,0c0,0 2.108,-0.068 2.108,1.322c0,0 0.377,-0.068 0.377,-0.365c0,-0.183 0,-2.532 0,-2.736c0,-0.433 -0.251,-1.597 -2.44,-1.597c-1.47,0 -3.625,0 -3.625,0l-0.637,1.734l0.637,1.642z"/>
    <polygon id="svg_8" points="64.391,28.615 62.994,28.615 62.994,27.688 61.37,27.688 61.37,31.032 62.994,31.032     62.994,30.105 64.391,30.105   " fill="#ffffff"/>
    <path id="svg_9" fill="#ffffff" d="m5.014,36.367l-1.514,0l0,-3.776l1.095,0c0.072,-0.083 0.151,-0.193 0.237,-0.327c0.085,-0.133 0.17,-0.299 0.255,-0.492c0.195,-0.389 0.368,-0.934 0.52,-1.633c0.153,-0.699 0.229,-1.614 0.229,-2.745l0,-2.022l5.656,0l0,7.22l1.247,0l0,3.776l-1.515,0l0,-2.48l-6.21,0l0,2.479zm4.963,-9.695l-2.626,0c0.011,1.547 -0.056,2.75 -0.201,3.608c-0.146,0.858 -0.408,1.631 -0.785,2.311l3.612,0l0,-5.919z"/>
    <path id="svg_10" fill="#ffffff" d="m21.538,32.397c-0.183,0.218 -0.372,0.413 -0.567,0.584c-0.193,0.17 -0.389,0.316 -0.584,0.438c-0.511,0.303 -0.994,0.488 -1.451,0.554c-0.457,0.068 -0.769,0.102 -0.94,0.102c-1.327,0 -2.367,-0.436 -3.122,-1.307c-0.755,-0.87 -1.132,-1.896 -1.132,-3.076c0,-1.266 0.368,-2.339 1.105,-3.216c0.736,-0.875 1.7,-1.315 2.894,-1.315c1.241,0 2.157,0.412 2.747,1.231c0.589,0.821 0.928,1.723 1.013,2.707c0.012,0.1 0.021,0.202 0.028,0.311c0.005,0.109 0.009,0.213 0.009,0.311l0,0.091l0,0.109l-6.062,0l0,0.037l0,0.036l0,0.037l0,0.036c0,0.673 0.2,1.292 0.602,1.861c0.402,0.568 1.041,0.851 1.917,0.851c0.304,0 0.578,-0.031 0.822,-0.1c0.243,-0.065 0.481,-0.167 0.711,-0.302c0.171,-0.107 0.34,-0.236 0.511,-0.382c0.171,-0.146 0.354,-0.315 0.547,-0.511l0.952,0.913zm-1.715,-3.79c-0.012,-0.122 -0.033,-0.256 -0.063,-0.408c-0.031,-0.151 -0.076,-0.312 -0.137,-0.48c-0.133,-0.304 -0.35,-0.584 -0.647,-0.845c-0.298,-0.26 -0.726,-0.391 -1.286,-0.391c-0.621,0 -1.083,0.152 -1.386,0.454c-0.305,0.303 -0.511,0.629 -0.621,0.982c-0.036,0.12 -0.063,0.239 -0.082,0.353c-0.018,0.116 -0.033,0.227 -0.045,0.336l4.267,0l0,-0.001z"/>
    <polygon id="svg_11" points="24.913,33.887 23.399,33.887 23.399,25.371 24.913,25.371 24.913,28.627 28.875,28.627     28.875,25.371 30.389,25.371 30.389,33.887 28.875,33.887 28.875,29.94 24.913,29.94   " fill="#ffffff"/>
    <path id="svg_12" fill="#ffffff" d="m34.417,25.371l0,2.576l1.784,0c1.371,0 2.283,0.275 2.738,0.828s0.682,1.224 0.682,2.014c0,0.887 -0.224,1.626 -0.673,2.214c-0.449,0.589 -1.444,0.884 -2.986,0.884l-3.058,0l0,-8.516l1.513,0zm1.673,7.202c0.715,0 1.188,-0.151 1.417,-0.455c0.23,-0.303 0.358,-0.637 0.382,-1.001l0,-0.082l0,-0.101c0,-0.461 -0.113,-0.854 -0.337,-1.183c-0.225,-0.328 -0.711,-0.492 -1.463,-0.492l-1.673,0l0,3.313l1.674,0l0,0.001z"/>
    <polygon id="svg_13" points="42.939,33.887 41.425,33.887 41.425,25.371 46.881,25.371 46.881,26.672 42.939,26.672   " fill="#ffffff"/>
    <polygon id="svg_14" points="53.909,26.719 53.909,25.371 55.423,25.371 55.423,33.887 53.909,33.887 53.909,28.615     49.946,32.628 49.946,33.887 48.433,33.887 48.433,25.371 49.946,25.371 49.946,30.732   " fill="#ffffff"/>
    <rect id="svg_15" y="26.129" x="82.264" width="0.859" height="6.439" fill="#ffffff"/>
    <circle id="svg_16" r="0.795" fill="#f37721" cy="27.924" cx="79.145"/>
    <path id="svg_20" fill="#ffffff" d="m29.963,21.042c-0.292,0 -0.401,-0.282 -0.401,-0.282l-1.423,-3.211l1.206,-2.357c0,0 0.108,-0.278 0.401,-0.278c0.159,0 0.209,0 0.228,0l0,-0.558l-1.944,0l0,0.558c0,0 0.057,0 0.275,0c0.295,0 0.189,0.278 0.189,0.278l-0.742,1.487l-0.66,-1.487c0,0 -0.104,-0.278 0.188,-0.278c0.216,0 0.248,0 0.248,0l0,-0.558l-2.239,0l0,0.558c0.016,0 0.069,0 0.225,0c0.297,0 0.404,0.278 0.404,0.278l1.213,2.744l-1.402,2.825c0,0 -0.106,0.282 -0.402,0.282c-0.214,0 -0.185,0 -0.185,0l0,0.555l1.856,0l0,-0.555c0,0 -0.021,0 -0.316,0c-0.294,0 -0.186,-0.282 -0.186,-0.282l1.012,-1.976l0.875,1.976c0,0 0.111,0.282 -0.185,0.282c-0.294,0 -0.289,0 -0.289,0l0,0.555l2.24,0l0,-0.555c0,-0.001 0.03,-0.001 -0.186,-0.001"/>
    <path id="svg_21" fill="#EE3524" d="m10.081,11.012c0.295,0 0.474,0 0.474,0l0,-0.558c0,0 -1.954,0 -2.328,0c-0.373,0 -3.152,-0.075 -3.152,2.675c0,0.279 0,-0.084 0,0.197c0,1.431 1.007,2.416 1.701,2.595c-0.384,0.098 -0.663,0.351 -0.81,0.579c-0.325,0.511 -0.52,1.136 -0.646,2.124c-0.133,1.036 -0.127,2.023 -0.507,2.346c-0.155,0.131 -0.378,0.18 -0.61,0.155l0,0.476c0.231,0.137 0.554,0.204 0.894,0.14c1.007,-0.194 1.372,-1.08 1.493,-1.817c0.218,-1.354 0.155,-3.568 1.426,-4.063l0.448,-0.001l0,4.899c0,0 0,0.282 -0.294,0.282c-0.295,0 -0.472,0 -0.472,0l0,0.555l2.857,0l0,-0.555c0,0 -0.178,0 -0.474,0c-0.293,0 -0.293,-0.282 -0.293,-0.282l0,-9.47c-0.001,0.001 -0.001,-0.277 0.293,-0.277l0,0zm-1.619,4.291l-0.294,0c-0.454,0 -1.825,0 -1.825,-2.004l0.027,-0.809c0,-1.478 1.323,-1.478 1.849,-1.478l0.243,0l0,4.291"/>
    <path id="svg_22" fill="#ffffff" d="m24.993,18.338l0.378,0c0.006,-0.133 0.007,-0.263 0.007,-0.399c0,-2.114 -0.629,-3.742 -2.142,-3.742c-1.514,0 -2.144,1.628 -2.144,3.742c0,2.113 0.63,3.769 2.144,3.769c1.155,0 1.756,-0.943 2.02,-2.353l-1.113,0c-0.089,1.07 -0.281,1.739 -0.907,1.739c-0.807,0 -0.931,-1.149 -0.953,-2.756l1.907,0l0.803,0l0,0zm-1.756,-3.525c0.807,0 0.93,1.12 0.954,2.728l-1.907,0c0.022,-1.609 0.146,-2.728 0.953,-2.728"/>
    <path id="svg_23" fill="#ffffff" d="m20.695,21.042c-0.294,0 -0.294,-0.282 -0.294,-0.282l0,-10.305l-1.735,0l0,0.558l0.587,0l0,3.558c-0.231,-0.218 -0.587,-0.345 -0.962,-0.345c-1.515,0 -2.232,1.629 -2.232,3.743c0,2.112 0.571,3.741 2.083,3.741c0.435,0 0.822,-0.19 1.111,-0.671l0.317,0.56l0.831,0l0.59,0l0,-0.555c0,-0.002 0,-0.002 -0.296,-0.002l0,0zm-2.493,0.053c-0.874,0 -0.9,-1.324 -0.9,-3.127c0,-1.805 0.027,-3.128 0.9,-3.128c1.189,0 0.988,1.323 0.988,3.128c0,1.655 0.201,3.127 -0.988,3.127"/>
    <path id="svg_24" fill="#ffffff" d="m15.63,21.042c-0.293,0 -0.293,-0.282 -0.293,-0.282s0,-4.721 0,-5.066c0,-0.5 -0.21,-1.505 -1.532,-1.505c-0.781,0 -1.121,0.542 -1.238,0.686l-0.341,-0.604l-1.393,0l0,0.557l0.586,0l0,5.932c0,0 0,0.282 -0.295,0.282c-0.292,0 -0.292,0 -0.292,0l0,0.555l2.325,0l0,-0.555c0,0 0,0 -0.296,0c-0.294,0 -0.294,-0.282 -0.294,-0.282l0,-4.334c0,-0.514 0.055,-0.759 0.083,-0.854c0.102,-0.29 0.332,-0.659 0.833,-0.659c0.588,0 0.702,0.538 0.702,0.807c0,0.159 0,5.04 0,5.04s0,0.282 -0.292,0.282c-0.294,0 -0.294,0 -0.294,0l0,0.555l2.325,0l0,-0.555c0,0 0,0 -0.294,0"/>
  </g>
</svg>
