<?xml version="1.0" encoding="UTF-8" standalone="no"?>
<svg xmlns="http://www.w3.org/2000/svg" xmlns:xlink="http://www.w3.org/1999/xlink" width="120px" height="76px" viewBox="0 0 120 76" version="1.1">
    
    <title>payment_027-webmoney-card</title>
    <desc>Created with Sketch.</desc>
    <defs/>
    <g id="round-rect" stroke="none" stroke-width="1" fill="none" fill-rule="evenodd">
        <g id="payment_027-webmoney-card">
            <path d="M111.998561,0 L8.0014394,0 C3.58236644,0 0,3.58906554 0,8.00758637 L0,67.9924136 C0,72.4148815 3.59136164,76 8.0014394,76 L111.998561,76 C116.417634,76 120,72.4109345 120,67.9924136 L120,8.00758637 C120,3.58511853 116.408638,0 111.998561,0 Z" id="bg" fill="#2C97DE"/>
            <g id="Group-4" transform="translate(31.000000, 7.000000)">
                <g id="logo" transform="translate(6.480000, 0.159158)">
                    <path d="M37.5466667,39.4132686 L37.5466667,5.6126519 C33.5645302,2.13035497 28.3415221,0.0186444838 22.6226877,0.0186444838 C10.133688,0.0186444838 0.0093543956,10.0896921 0.0093543956,22.5129603 C0.0093543956,34.9362285 10.133688,45.0072761 22.6226877,45.0072761 C28.3415221,45.0072761 33.5645302,42.8955656 37.5466667,39.4132686 Z" id="Rectangle-7" fill="#FFFFFF"/>
                    <path d="M34.4549003,3.33991772 L33.81125,3.346875 L31.71625,5.54855921 L28.2720833,2.05744737 L23.4658333,6.76006579 L20.0483333,3.21258553 L10.4316667,12.0417039 L16.90125,18.9240395 L14.6970833,21.0888355 L20.285,27.2043947 L18.4095833,30.0327632 L26.6054167,39.2137697 L32.0558333,34.6350789 L36.3295833,39.3596645 L37.6077441,39.3596645 C42.2865485,35.2385034 45.2360211,29.2183623 45.2360211,22.5129603 C45.2360211,14.4045598 40.9231636,7.29817998 34.4549003,3.33991772 Z" id="Path-219" fill="#4086CD"/>
                    <path d="M35.03625,34.4390329 L38.76375,30.5143816 L42.3608333,34.0191711 L38.8616667,37.7075724 L35.03625,34.4390329 Z M40.09125,23.7795987 L42.1804167,21.2774211 L44.3475,23.7563882 L42.3875,26.4102632 L40.09125,23.7795987 Z M31.3329167,26.0463553 L35.2454167,22.4491382 L38.8158333,26.2540066 L35.1254167,30.1135855 L31.3329167,26.0463553 Z M22.1104167,30.2818618 L27.7133333,25.5141711 L32.4125,30.4745921 L27.555,35.3305658 L22.1104167,30.2818618 Z M36.5225,16.1561842 L38.8025,13.5802303 L41.7933333,16.3257039 L39.2558333,18.8088158 L36.5225,16.1561842 Z M28.2379167,17.5463289 L31.9829167,14.3731184 L35.4229167,17.5873618 L32.0616667,21.3275724 L28.2379167,17.5463289 Z M18.66,21.3304737 L23.7208333,16.6738618 L28.0541667,21.2376316 L23.485,26.3559671 L18.66,21.3304737 Z M33.4125,8.44738816 L35.3491667,6.07908553 L37.6691667,8.17922368 L35.9416667,10.5562303 L33.4125,8.44738816 Z M24.3116667,10.0182434 L28.3075,6.31036184 L32.0629167,9.87525 L28.2391667,13.6937961 L24.3116667,10.0182434 Z M14.7041667,12.5399013 L19.9829167,7.79003289 L24.92375,12.5709868 L19.8775,17.2367171 L14.7041667,12.5399013 Z" id="Path" fill="#FFFFFF"/>
                </g>
                <path d="M2.29166667,51.0896842 L3.26666667,56.1716034 L3.47666667,57.5865928 L3.69166667,56.2017096 L4.52166667,51.0896842 L6.14666667,51.0896842 L7.02166667,56.1716034 L7.24666667,57.5865928 L7.47166667,56.2257945 L8.45666667,51.0896842 L10.0216667,51.0896842 L7.94666667,59.9649791 L6.47666667,59.9649791 L5.58666667,54.7746778 L5.32666667,53.0586268 L5.06666667,54.7746778 L4.17666667,59.9649791 L2.74666667,59.9649791 L0.656666667,51.0896842 L2.29166667,51.0896842 Z M14.5436667,53.5343041 C14.9070018,53.739027 15.2069988,54.0621632 15.4436667,54.5037223 C15.6570011,54.8930972 15.795333,55.3446851 15.8586667,55.8584994 C15.8953335,56.1595625 15.9103334,56.5930868 15.9036667,57.1590853 L12.1736667,57.1590853 C12.1936668,57.8174099 12.3653317,58.279033 12.6886667,58.5439685 C12.8853343,58.7085497 13.1219986,58.790839 13.3986667,58.790839 C13.6920015,58.790839 13.9303324,58.6904862 14.1136667,58.4897774 C14.2136672,58.3813947 14.3019996,58.2308655 14.3786667,58.0381851 L15.8336667,58.0381851 C15.7969998,58.42756 15.6286682,58.8229502 15.3286667,59.2243677 C14.8619977,59.8626214 14.2086709,60.1817434 13.3686667,60.1817434 C12.6753299,60.1817434 12.0636693,59.9127978 11.5336667,59.3748984 C11.003664,58.8369991 10.7386667,57.9619222 10.7386667,56.7496416 C10.7386667,55.6136303 10.977831,54.7425675 11.4561667,54.1364272 C11.9345024,53.5302869 12.5553295,53.2272213 13.3186667,53.2272213 C13.7720023,53.2272213 14.1803315,53.3295812 14.5436667,53.5343041 C14.5436667,53.5343041 14.1803315,53.3295812 14.5436667,53.5343041 Z M12.5511667,55.015527 C12.3694991,55.2644058 12.2553336,55.6015914 12.2086667,56.0270939 L14.4236667,56.0270939 C14.4003332,55.5734922 14.2861677,55.2292819 14.0811667,54.9944527 C13.8761657,54.7596235 13.6220015,54.6422107 13.3186667,54.6422107 C12.988665,54.6422107 12.7328343,54.7666482 12.5511667,55.015527 C12.5511667,55.015527 12.7328343,54.7666482 12.5511667,55.015527 Z M22.0031667,54.1906183 C22.4081687,54.8128153 22.6106667,55.6156381 22.6106667,56.5991108 C22.6106667,57.6187111 22.4106687,58.4636821 22.0106667,59.1340492 C21.6106647,59.8044163 21.052337,60.1395948 20.3356667,60.1395948 C19.8856645,60.1395948 19.5240014,60.0312137 19.2506667,59.8144483 C19.0873326,59.6859948 18.9106677,59.4612044 18.7206667,59.1400704 L18.7206667,59.9649791 L17.3256667,59.9649791 L17.3256667,51.1017267 L18.7456667,51.1017267 L18.7456667,54.2568519 C18.9256676,53.9517746 19.123999,53.718956 19.3406667,53.558389 C19.5973347,53.3576803 19.9239981,53.2573275 20.3206667,53.2573275 C21.037337,53.2573275 21.5981647,53.5684213 22.0031667,54.1906183 C22.0031667,54.1906183 21.5981647,53.5684213 22.0031667,54.1906183 Z M20.8106667,58.1887159 C21.0140011,57.8314544 21.1156667,57.361803 21.1156667,56.7797478 C21.1156667,56.3141036 21.0656672,55.9287486 20.9656667,55.6236714 C20.7756658,55.0456303 20.4256693,54.7566141 19.9156667,54.7566141 C19.3989975,54.7566141 19.044001,55.0396091 18.8506667,55.6056077 C18.7506662,55.9066707 18.7006667,56.2960398 18.7006667,56.7737265 C18.7006667,57.3357109 18.803999,57.8013482 19.0106667,58.1706522 C19.2173344,58.5399562 19.5323313,58.7246055 19.9556667,58.7246055 C20.3223352,58.7246055 20.6073324,58.5459774 20.8106667,58.1887159 C20.8106667,58.1887159 20.6073324,58.5459774 20.8106667,58.1887159 Z M29.1426667,51.0896842 L31.3576667,51.0896842 L31.3576667,59.9649791 L29.9226667,59.9649791 L29.9226667,53.9618115 C29.9226667,53.789202 29.9243334,53.5473517 29.9276667,53.2362532 C29.9310001,52.9251547 29.9326667,52.6853113 29.9326667,52.516716 L28.5376667,59.9649791 L27.0426667,59.9649791 L25.6576667,52.516716 C25.6576667,52.6853113 25.6593334,52.9251547 25.6626667,53.2362532 C25.6660001,53.5473517 25.6676667,53.789202 25.6676667,53.9618115 L25.6676667,59.9649791 L24.2326667,59.9649791 L24.2326667,51.0896842 L26.4726667,51.0896842 L27.8126667,58.0682913 L29.1426667,51.0896842 Z M37.7296667,59.167166 C37.2696644,59.8515827 36.5713381,60.1937859 35.6346667,60.1937859 C34.6979954,60.1937859 33.999669,59.8515827 33.5396667,59.167166 C33.0796644,58.4827493 32.8496667,57.6588524 32.8496667,56.6954505 C32.8496667,55.7481054 33.0796644,54.9272191 33.5396667,54.2327669 C33.999669,53.5383148 34.6979954,53.1910939 35.6346667,53.1910939 C36.5713381,53.1910939 37.2696644,53.5383148 37.7296667,54.2327669 C38.189669,54.9272191 38.4196667,55.7481054 38.4196667,56.6954505 C38.4196667,57.6588524 38.189669,58.4827493 37.7296667,59.167166 C37.7296667,59.167166 38.189669,58.4827493 37.7296667,59.167166 Z M36.5896667,58.218822 C36.8130012,57.8615605 36.9246667,57.3537751 36.9246667,56.6954505 C36.9246667,56.037126 36.8130012,55.5303441 36.5896667,55.1750896 C36.3663323,54.8198352 36.0463355,54.6422107 35.6296667,54.6422107 C35.212998,54.6422107 34.8921679,54.8198352 34.6671667,55.1750896 C34.4421656,55.5303441 34.3296667,56.037126 34.3296667,56.6954505 C34.3296667,57.3537751 34.4421656,57.8615605 34.6671667,58.218822 C34.8921679,58.5760836 35.212998,58.7547116 35.6296667,58.7547116 C36.0463355,58.7547116 36.3663323,58.5760836 36.5896667,58.218822 C36.5896667,58.218822 36.3663323,58.5760836 36.5896667,58.218822 Z M44.3541668,53.778164 C44.7125019,54.1334184 44.8916668,54.7224896 44.8916668,55.5453954 L44.8916668,59.9649791 L43.4316668,59.9649791 L43.4316668,55.9729028 C43.4316668,55.6276838 43.3933338,55.3627523 43.3166668,55.1781002 C43.1766661,54.8409096 42.9100021,54.6723168 42.5166668,54.6723168 C42.033331,54.6723168 41.7016677,54.9191848 41.5216668,55.4129283 C41.428333,55.6738496 41.3816668,56.0070211 41.3816668,56.4124527 L41.3816668,59.9649791 L39.9616668,59.9649791 L39.9616668,53.4138795 L41.3366668,53.4138795 L41.3366668,54.3712553 C41.520001,54.0340646 41.6933326,53.7912107 41.8566668,53.6426863 C42.1500016,53.3777508 42.5216645,53.245285 42.9716668,53.245285 C43.5350029,53.245285 43.9958316,53.4229096 44.3541668,53.778164 C44.3541668,53.778164 43.9958316,53.4229096 44.3541668,53.778164 Z M50.0936668,53.5343041 C50.4570019,53.739027 50.7569989,54.0621632 50.9936668,54.5037223 C51.2070012,54.8930972 51.3453331,55.3446851 51.4086668,55.8584994 C51.4453336,56.1595625 51.4603335,56.5930868 51.4536668,57.1590853 L47.7236668,57.1590853 C47.7436669,57.8174099 47.9153318,58.279033 48.2386668,58.5439685 C48.4353344,58.7085497 48.6719987,58.790839 48.9486668,58.790839 C49.2420016,58.790839 49.4803325,58.6904862 49.6636668,58.4897774 C49.7636673,58.3813947 49.8519997,58.2308655 49.9286668,58.0381851 L51.3836668,58.0381851 C51.3469999,58.42756 51.1786683,58.8229502 50.8786668,59.2243677 C50.4119978,59.8626214 49.758671,60.1817434 48.9186668,60.1817434 C48.22533,60.1817434 47.6136694,59.9127978 47.0836668,59.3748984 C46.5536641,58.8369991 46.2886668,57.9619222 46.2886668,56.7496416 C46.2886668,55.6136303 46.5278311,54.7425675 47.0061668,54.1364272 C47.4845025,53.5302869 48.1053296,53.2272213 48.8686668,53.2272213 C49.3220024,53.2272213 49.7303316,53.3295812 50.0936668,53.5343041 C50.0936668,53.5343041 49.7303316,53.3295812 50.0936668,53.5343041 Z M48.1011668,55.015527 C47.9194992,55.2644058 47.8053337,55.6015914 47.7586668,56.0270939 L49.9736668,56.0270939 C49.9503333,55.5734922 49.8361678,55.2292819 49.6311668,54.9944527 C49.4261658,54.7596235 49.1720016,54.6422107 48.8686668,54.6422107 C48.5386651,54.6422107 48.2828344,54.7666482 48.1011668,55.015527 C48.1011668,55.015527 48.2828344,54.7666482 48.1011668,55.015527 Z M53.1456668,61.2234164 L53.3256668,61.2354589 C53.4656675,61.2434873 53.5989995,61.2374661 53.7256668,61.2173952 C53.8523341,61.1973243 53.9589997,61.151162 54.0456668,61.0789069 C54.1290006,61.0106659 54.2064998,60.8681649 54.2781668,60.6513995 C54.3498338,60.4346341 54.3790002,60.3021683 54.3656668,60.2539982 L52.3656668,53.401837 L53.9506668,53.401837 L55.1406668,58.242907 L56.2656668,53.401837 L57.7806668,53.401837 L55.9106668,59.8565969 C55.550665,61.100991 55.2656679,61.8727044 55.0556668,62.1717604 C54.8456658,62.4708164 54.42567,62.6203421 53.7956668,62.6203421 C53.6689995,62.6203421 53.5673339,62.6193386 53.4906668,62.6173315 C53.4139998,62.6153244 53.2990009,62.6082997 53.1456668,62.5962572 C53.1456668,62.5962572 53.2990009,62.6082997 53.1456668,62.5962572 L53.1456668,61.2234164 Z" id="WebMoney" fill="#FFFFFF"/>
            </g>
        </g>
    </g>

	
	<metadata>
		<rdf:RDF xmlns:rdf="http://www.w3.org/1999/02/22-rdf-syntax-ns#" xmlns:rdfs="http://www.w3.org/2000/01/rdf-schema#" xmlns:dc="http://purl.org/dc/elements/1.1/">
			<rdf:Description about="https://iconscout.com/legal#licenses" dc:title="Payment, Webmoney, Card, Bank, Transaction" dc:description="Payment, Webmoney, Card, Bank, Transaction" dc:publisher="Iconscout" dc:date="2016-12-14" dc:format="image/svg+xml" dc:language="en">
				<dc:creator>
					<rdf:Bag>
						<rdf:li>Linh Pham</rdf:li>
					</rdf:Bag>
				</dc:creator>
			</rdf:Description>
		</rdf:RDF>
    </metadata></svg>
