<svg width="85" height="54" xmlns="http://www.w3.org/2000/svg"  viewBox="0 0 85 54">
  <title>Qiwi wallet</title>
  <g>
    <rect fill="none" id="canvas_background" height="56" width="87" y="-1" x="-1"/>
  </g>
  <g>
    <path id="svg_2" fill="#0269b3" d="m85,51.636c0,1.305 -1.16,2.364 -2.593,2.364l-79.814,0c-1.432,0 -2.593,-1.059 -2.593,-2.364l0,-49.271c0,-1.306 1.161,-2.365 2.593,-2.365l79.814,0c1.433,0 2.593,1.059 2.593,2.365l0,49.271z"/>
    <path id="svg_4" fill-rule="evenodd" fill="#F68E1F" d="m53.568,24.681c-0.259,-1.199 -0.813,-2.101 -1.591,-2.783c-0.268,-0.283 -0.592,-0.483 -0.96,-0.695c-0.186,-0.107 -0.32,-0.173 -0.563,-0.265c-0.403,-0.153 -0.933,-0.332 -1.591,-0.265c0.33,-0.167 0.821,-0.174 1.325,-0.166c0.419,0.045 0.767,0.161 1.126,0.265c0.301,0.163 0.599,0.329 0.895,0.497c0.726,-2.17 0.448,-5.141 -0.364,-7.055c-0.785,-2.008 -1.927,-3.661 -3.411,-4.968c-1.46,-1.334 -3.214,-2.374 -5.533,-2.849c-1.147,-0.248 -2.59,-0.208 -3.644,0.033c-1.101,0.29 -2.016,0.766 -2.815,1.358c-0.743,0.659 -1.464,1.34 -1.954,2.252c-0.177,0.177 -0.252,0.455 -0.398,0.663c-0.102,0.251 -0.216,0.49 -0.331,0.728c-0.171,0.524 -0.367,1.024 -0.464,1.624c-0.265,1.084 -0.313,2.574 -0.132,3.743c0.136,1.255 0.504,2.278 0.895,3.279c0.241,0.466 0.46,0.953 0.728,1.391c0.254,0.442 0.568,0.823 0.862,1.226c0.667,0.724 1.384,1.397 2.219,1.955c1.692,1.102 3.634,1.953 6.294,2.086c0.053,-0.108 -0.071,-0.324 -0.099,-0.463c-0.04,-0.159 -0.056,-0.342 -0.101,-0.497c-0.037,-0.357 -0.049,-0.773 0,-1.126c0.106,0.027 0.103,0.162 0.167,0.231c0.057,0.065 0.078,0.166 0.166,0.199c0.066,0.187 0.211,0.296 0.298,0.464c0.25,0.258 0.444,0.571 0.762,0.761c0.253,0.256 0.59,0.426 0.895,0.63c0.328,0.169 0.609,0.384 0.994,0.496c0.658,0.347 1.54,0.469 2.418,0.597c0.885,0.12 1.738,0.271 2.55,0.464c0.748,0.257 1.51,0.499 2.12,0.894c0.322,0.186 0.64,0.377 0.927,0.597c0.141,0.113 0.318,0.189 0.431,0.331c0.175,0.069 0.251,0.235 0.431,0.298c0.515,0.49 1.022,0.987 1.459,1.557c0.18,0.328 0.425,0.59 0.563,0.961c0.121,0.133 0.156,0.352 0.265,0.496c0.007,0.188 0.189,0.414 0.033,0.563c-0.246,0.036 -0.196,-0.224 -0.298,-0.331c-0.08,-0.13 -0.18,-0.241 -0.233,-0.396c-0.387,-0.407 -0.734,-0.855 -1.158,-1.226c-0.42,-0.364 -0.833,-0.736 -1.325,-1.027c-0.925,-0.654 -1.997,-1.159 -3.246,-1.491c-1.229,-0.355 -2.608,-0.498 -4.206,-0.396c-0.702,0.092 -1.372,0.219 -1.955,0.43c-0.627,0.156 -1.326,0.241 -2.021,0.331c-2.711,0.167 -5.729,-0.479 -7.751,-1.456c-1.078,-0.5 -2.071,-1.087 -2.914,-1.822c-0.461,-0.333 -0.838,-0.752 -1.226,-1.159c-0.354,-0.43 -0.728,-0.841 -0.994,-1.358c-0.354,-0.441 -0.564,-1.026 -0.862,-1.523c-0.193,-0.59 -0.468,-1.1 -0.596,-1.755c-0.203,-0.592 -0.327,-1.263 -0.397,-1.987c-0.012,-0.199 -0.101,-0.583 -0.1,-0.895c0,-0.028 0.036,-0.052 0.033,-0.099c-0.015,-0.283 -0.082,-0.718 0,-0.96c-0.015,-0.657 0.103,-1.464 0.232,-2.087c0.119,-0.665 0.295,-1.271 0.497,-1.854c0.197,-0.597 0.458,-1.131 0.695,-1.689c0.159,-0.238 0.28,-0.514 0.43,-0.761c0.127,-0.26 0.317,-0.456 0.432,-0.729c0.127,-0.071 0.15,-0.247 0.264,-0.331c0.051,-0.147 0.189,-0.209 0.232,-0.364c0.109,-0.09 0.195,-0.203 0.265,-0.332c0.101,-0.098 0.206,-0.191 0.265,-0.332c0.395,-0.389 0.748,-0.82 1.159,-1.192c0.41,-0.385 0.869,-0.721 1.292,-1.093c0.269,-0.128 0.463,-0.332 0.729,-0.463c0.202,-0.185 0.496,-0.278 0.696,-0.464c0.55,-0.249 1.021,-0.574 1.621,-0.769c0.517,-0.267 1.137,-0.431 1.723,-0.629c1.271,-0.327 2.555,-0.551 4.139,-0.497c0.058,0.007 0.086,-0.057 0.1,0c3.002,0.09 5.19,0.995 7.056,2.219c1.849,1.231 3.28,2.88 4.306,4.936c1.003,2.036 1.567,4.802 1.094,7.717c-0.237,1.309 -0.62,2.471 -1.094,3.544c-0.271,0.502 -0.512,1.034 -0.828,1.491c-0.138,0.247 -0.286,0.486 -0.464,0.696c-0.059,0.127 -0.144,0.231 -0.23,0.331c-0.039,0.061 -0.088,0.112 -0.133,0.166c-0.016,0.029 -0.029,0.059 -0.066,0.066c0.007,0.059 -0.033,0.068 -0.035,0.033z" clip-rule="evenodd"/>
    <path id="svg_5" fill-rule="evenodd" fill="#F68E1F" d="m52.773,25.542c-0.389,-0.153 -0.454,-0.628 -0.63,-0.994c-0.031,-0.134 -0.059,-0.336 0,-0.464c0.026,-0.006 0.033,-0.033 0.066,-0.033c0.098,-0.063 0.19,0.017 0.331,0.066c0.19,0.218 0.312,0.505 0.397,0.828c0.008,0.262 0.028,0.535 -0.164,0.597z" clip-rule="evenodd"/>
    <path id="svg_6" fill-rule="evenodd" fill="#F68E1F" d="m49.858,24.979c0.007,-0.038 0.034,-0.019 0.034,0c0.587,0.074 0.856,0.467 0.894,1.093c-0.053,0.346 -0.246,0.549 -0.563,0.629c-0.791,0.013 -1.241,-0.715 -0.96,-1.458c0.157,-0.128 0.269,-0.303 0.595,-0.264z" clip-rule="evenodd"/>
    <path id="svg_7" fill-rule="evenodd" fill="#f68e1f" d="m33.959,47.038c0.094,0.403 0.3,0.695 0.53,0.962c0.229,0.268 0.5,0.492 0.828,0.662c0.306,0.19 0.639,0.354 1.026,0.463c0.188,0.067 0.368,0.142 0.596,0.165c0.158,0.087 0.355,0.134 0.365,0.365c-0.008,0.278 -0.195,0.379 -0.431,0.431c-0.237,-0.05 -0.531,-0.043 -0.729,-0.133c-0.502,-0.06 -0.905,-0.221 -1.325,-0.364c-0.809,-0.317 -1.485,-0.768 -2.054,-1.325c-0.116,-0.193 -0.273,-0.344 -0.397,-0.53c-0.123,-0.186 -0.206,-0.412 -0.332,-0.595c-0.984,-0.131 -1.657,-0.574 -2.252,-1.094c-0.547,-0.623 -0.978,-1.363 -1.16,-2.352c-0.209,-0.95 -0.145,-2.132 0.1,-3.048c0.542,-1.775 1.686,-2.953 3.842,-3.113c0.595,0.019 1.114,0.091 1.59,0.266c0.478,0.173 0.934,0.492 1.292,0.827c0.029,0.027 0.042,0.03 0.066,0.066c0.075,0.112 0.261,0.262 0.364,0.397c0.02,0.026 0.012,0.07 0.033,0.1c0.041,0.055 0.099,0.081 0.133,0.133c0.022,0.033 0.014,0.068 0.034,0.099c0.025,0.041 0.06,0.099 0.099,0.166c0.015,0.026 0.056,0.047 0.065,0.066c0.057,0.108 0.082,0.242 0.133,0.364c0.053,0.126 0.124,0.239 0.166,0.364c0.126,0.38 0.21,0.824 0.265,1.291c0.129,1.334 -0.135,2.525 -0.629,3.412c-0.233,0.463 -0.553,0.84 -0.928,1.159c-0.348,0.348 -0.827,0.565 -1.29,0.796zm-1.59,-8.347c-0.289,0.021 -0.462,0.156 -0.696,0.232c-0.154,0.143 -0.347,0.249 -0.464,0.431c-0.191,0.106 -0.243,0.353 -0.397,0.496c-0.129,0.322 -0.253,0.679 -0.332,1.094c-0.077,0.408 -0.129,0.872 -0.132,1.325c-0.008,1.14 0.235,2.273 0.695,2.948c0.267,0.328 0.593,0.599 0.994,0.794c0.23,0.022 0.413,0.095 0.662,0.1c0.138,-0.05 0.374,-0.003 0.464,-0.1c0.203,0.016 0.253,-0.122 0.43,-0.133c0.093,-0.095 0.2,-0.175 0.332,-0.231c0.119,-0.135 0.235,-0.272 0.364,-0.397c0.067,-0.099 0.103,-0.229 0.199,-0.299c0.576,-1.102 0.642,-3.123 0.265,-4.405c-0.138,-0.47 -0.341,-0.848 -0.563,-1.159c-0.244,-0.253 -0.532,-0.462 -0.861,-0.63c-0.265,-0.055 -0.514,-0.126 -0.861,-0.098c-0.02,0.001 -0.039,0.004 -0.034,0.032c-0.02,0 -0.043,0 -0.065,0z" clip-rule="evenodd"/>
    <path id="svg_8" fill-rule="evenodd" fill="#f68e1f" d="m39.358,37.764c0.52,0.021 1.125,-0.043 1.589,0.034c0.104,0.163 0.063,0.35 0.066,0.529c0.037,2.431 0,5.035 0,7.519c0,0.2 0.005,0.401 0,0.597c-0.005,0.165 0.037,0.345 -0.066,0.497c-0.233,0.058 -0.562,0.033 -0.861,0.033c-0.312,0 -0.621,0.042 -0.828,-0.067c-0.056,-2.937 -0.056,-6.105 0,-9.042c0.019,-0.049 0.053,-0.082 0.1,-0.1z" clip-rule="evenodd"/>
    <path id="svg_9" fill-rule="evenodd" fill="#f68e1f" d="m43.333,37.764c0.519,0 1.039,0 1.557,0c0.14,0.191 0.184,0.479 0.232,0.763c0.467,1.784 0.932,3.572 1.357,5.398c0.101,0.013 0.069,-0.108 0.1,-0.166c0.046,-0.042 0.021,-0.156 0.066,-0.198c0.019,-0.147 0.107,-0.224 0.1,-0.397c0.118,-0.224 0.153,-0.532 0.264,-0.762c0.137,-0.537 0.312,-1.037 0.465,-1.557c0.146,-0.539 0.345,-1.025 0.464,-1.591c0.219,-0.453 0.271,-1.074 0.53,-1.49c0.22,0 0.44,0 0.661,0c0.239,0.446 0.324,1.047 0.531,1.524c0.132,0.54 0.322,1.024 0.463,1.557c0.328,1.03 0.664,2.052 0.961,3.113c0.132,-0.199 0.133,-0.529 0.231,-0.762c0.058,-0.264 0.108,-0.533 0.198,-0.762c0.257,-1.048 0.497,-2.108 0.796,-3.113c0.112,-0.528 0.22,-1.062 0.396,-1.523c0.384,-0.055 0.977,-0.055 1.358,0c0.034,0.389 -0.149,0.811 -0.264,1.158c-0.062,0.426 -0.22,0.752 -0.299,1.159c-0.236,0.747 -0.419,1.547 -0.663,2.286c-0.187,0.795 -0.437,1.528 -0.629,2.319c-0.127,0.368 -0.221,0.771 -0.331,1.158c-0.129,0.357 -0.173,0.8 -0.365,1.094c-0.309,0 -0.617,0 -0.927,0c-0.236,-0.416 -0.32,-0.982 -0.53,-1.424c-0.461,-1.462 -0.977,-2.867 -1.424,-4.34c-0.157,0.163 -0.153,0.486 -0.265,0.695c-0.07,0.25 -0.141,0.5 -0.232,0.729c-0.125,0.505 -0.32,0.938 -0.431,1.457c-0.184,0.457 -0.321,0.959 -0.463,1.459c-0.195,0.434 -0.265,0.993 -0.497,1.391c-0.246,0.074 -0.627,0.013 -0.927,0.033c-0.234,-0.264 -0.256,-0.739 -0.399,-1.094c-0.111,-0.372 -0.188,-0.782 -0.33,-1.126c-0.177,-0.807 -0.447,-1.52 -0.63,-2.318c-0.24,-0.741 -0.444,-1.521 -0.663,-2.286c-0.119,-0.366 -0.213,-0.759 -0.331,-1.125c-0.055,-0.399 -0.324,-0.757 -0.232,-1.193c0.027,-0.031 0.062,-0.05 0.102,-0.066z" clip-rule="evenodd"/>
    <path id="svg_10" fill-rule="evenodd" fill="#f68e1f" d="m56.417,37.764c0.519,0.021 1.124,-0.043 1.59,0.034c0.114,0.349 0.066,0.718 0.066,1.092c0,2.253 0,4.653 0,6.956c0,0.377 0.048,0.744 -0.066,1.094c-0.358,0.041 -0.885,0.055 -1.325,0.033c-0.126,-0.006 -0.28,0.03 -0.364,-0.067c-0.114,-0.344 -0.066,-0.714 -0.066,-1.093c0,-2.239 0,-4.531 0,-6.889c0,-0.418 -0.039,-0.818 0.066,-1.094c0.024,-0.031 0.06,-0.05 0.099,-0.066z" clip-rule="evenodd"/>
    <path id="svg_11" fill-rule="evenodd" fill="#f68e1f" d="m47.109,50.781c0.204,0.105 0.419,0.199 0.563,0.364c0.119,0.188 0.179,0.543 0.099,0.829c-0.294,0.611 -1.317,0.661 -2.086,0.462c0,-1.003 0,-2.008 0,-3.013c0.227,-0.116 0.586,-0.098 0.927,-0.1c0.224,0.029 0.442,0.064 0.63,0.132c0.245,0.153 0.455,0.477 0.331,0.895c-0.119,0.181 -0.226,0.371 -0.464,0.431zm0,-0.464c0.084,-0.633 -0.431,-0.741 -0.961,-0.662c0,0.353 0,0.706 0,1.061c0.492,0.039 0.818,-0.089 0.961,-0.399zm0.165,1.557c0.169,-0.68 -0.438,-1.007 -1.093,-0.861c-0.077,0.332 -0.011,0.807 -0.033,1.192c0.489,0.038 0.936,0.007 1.126,-0.331z" clip-rule="evenodd"/>
    <path id="svg_12" fill-rule="evenodd" fill="#f68e1f" d="m39.656,49.357c0.072,0.358 0.014,0.846 0.033,1.259c0.02,0.061 0.139,-0.058 0.132,-0.133c0.058,-0.042 0.131,-0.069 0.133,-0.166c0.113,-0.087 0.204,-0.193 0.266,-0.331c0.223,-0.174 0.334,-0.461 0.563,-0.629c0.122,0.011 0.293,-0.028 0.364,0.033c-0.113,0.284 -0.334,0.461 -0.497,0.695c-0.154,0.233 -0.362,0.411 -0.497,0.663c0.171,0.313 0.417,0.553 0.596,0.86c0.21,0.276 0.451,0.521 0.597,0.861c-0.12,0.069 -0.359,0.018 -0.53,0.033c-0.202,-0.24 -0.367,-0.517 -0.563,-0.762c-0.165,-0.278 -0.389,-0.495 -0.53,-0.795c-0.078,0.441 -0.011,1.027 -0.034,1.523c-0.099,0.066 -0.313,0.019 -0.463,0.033c-0.058,-0.958 -0.053,-2.296 0,-3.146c0.143,0.002 0.287,0.002 0.43,0.002z" clip-rule="evenodd"/>
    <path id="svg_13" fill-rule="evenodd" fill="#f68e1f" d="m44.161,50.252c0.049,-0.021 -0.003,-0.041 0,0c-0.575,0.729 -1.086,1.52 -1.657,2.252c-0.132,0 -0.264,0 -0.397,0c-0.055,-0.972 -0.055,-2.175 0,-3.146c0.122,0 0.243,0 0.364,0c0,0.794 0,1.59 0,2.385c0.029,0.089 0.08,-0.069 0.1,-0.1c0.046,-0.054 0.093,-0.104 0.131,-0.165c0.07,-0.119 0.164,-0.213 0.232,-0.332c0.156,-0.219 0.332,-0.419 0.464,-0.662c0.196,-0.18 0.296,-0.455 0.497,-0.63c0.046,-0.141 0.139,-0.236 0.232,-0.33c0.009,-0.191 0.226,-0.174 0.431,-0.166c-0.021,1.038 0.044,2.164 -0.033,3.146c-0.11,0 -0.221,0 -0.331,0c-0.076,-0.686 -0.011,-1.511 -0.033,-2.252z" clip-rule="evenodd"/>
    <path id="svg_14" fill-rule="evenodd" fill="#f68e1f" d="m49.129,49.391c0,0.729 0,1.457 0,2.186c0.031,0.09 0.081,-0.069 0.101,-0.099c0.067,-0.01 0.066,-0.089 0.099,-0.133c0.092,-0.074 0.124,-0.208 0.231,-0.265c0.101,-0.232 0.274,-0.388 0.399,-0.597c0.285,-0.365 0.541,-0.76 0.827,-1.126c0.132,0 0.265,0 0.397,0c0.055,0.972 0.055,2.175 0,3.146c-0.11,0 -0.222,0 -0.331,0c-0.077,-0.729 -0.013,-1.601 -0.034,-2.385c-0.028,-0.063 -0.019,0.036 -0.065,0.032c-0.016,0.03 -0.029,0.06 -0.066,0.067c-0.004,0.084 -0.061,0.116 -0.1,0.165c-0.073,0.114 -0.149,0.226 -0.232,0.332c-0.146,0.228 -0.327,0.422 -0.462,0.662c-0.16,0.216 -0.341,0.41 -0.465,0.662c-0.23,0.146 -0.201,0.55 -0.662,0.464c-0.055,-0.972 -0.055,-2.175 0,-3.146c0.121,0.012 0.293,-0.027 0.363,0.035z" clip-rule="evenodd"/>
  </g>
  </svg>
