<?xml version="1.0" encoding="iso-8859-1"?>
<!-- Generator: Adobe Illustrator 16.0.0, SVG Export Plug-In . SVG Version: 6.00 Build 0)  -->
<!DOCTYPE svg PUBLIC "-//W3C//DTD SVG 1.1//EN" "http://www.w3.org/Graphics/SVG/1.1/DTD/svg11.dtd">
<svg xmlns="http://www.w3.org/2000/svg" xmlns:xlink="http://www.w3.org/1999/xlink" version="1.1" id="Capa_1" x="0px" y="0px" width="512px" height="512px" viewBox="0 0 56.48 56.48" style="enable-background:new 0 0 56.48 56.48;" xml:space="preserve">
<g>
	<path d="M14.072,22.264c0.273,0,0.537,0,0.817,0c0,0.969,0,1.928,0,2.908c-0.466,0-0.904,0-1.376,0   C14.11,24.249,14.029,23.256,14.072,22.264z M18.352,22.339c-0.193-0.283-0.554-0.292-0.771-0.021   c-0.25,0.313-0.323,0.667-0.343,1.049c0.449,0,0.879,0,1.348,0C18.594,23.001,18.568,22.654,18.352,22.339z M6.268,29.845   c-0.008,1.063-0.006,2.129-0.307,3.168c-0.149,0.518-0.396,1.016-0.599,1.521c0.755,0,1.559,0,2.37,0c0-1.753,0-3.479,0-5.197   c-0.498,0-0.974,0-1.465,0C6.268,29.517,6.27,29.681,6.268,29.845z M23.819,31.819c-0.069,0.015-0.165,0.104-0.165,0.159   c-0.012,0.83-0.008,1.662-0.008,2.505c0.938,0.223,1.716-0.138,1.895-0.896c0.066-0.281,0.064-0.591,0.006-0.873   C25.385,31.933,24.758,31.619,23.819,31.819z M7.641,22.855c0-0.882,0-1.738,0-2.607c-0.971-0.121-1.388,0.081-1.704,0.808   c-0.017,0.04-0.038,0.08-0.051,0.122c-0.157,0.528-0.036,1.011,0.389,1.428C6.646,22.97,7.154,22.849,7.641,22.855z M13.726,29.546   c-0.143-0.242-0.354-0.429-0.71-0.445c-0.364-0.018-0.581,0.17-0.744,0.399c-0.383,0.539-0.495,1.138-0.555,1.776   c0.81,0,1.579,0,2.375,0C14.095,30.671,14.043,30.089,13.726,29.546z M56.48,11.393v33.695c0,0.803-0.65,1.454-1.454,1.454H1.454   C0.65,46.542,0,45.89,0,45.087V11.393c0-0.803,0.65-1.454,1.454-1.454h53.572C55.83,9.939,56.48,10.59,56.48,11.393z    M23.445,25.121c0.397,0.528,1.088,0.776,1.797,0.609c0.501-0.117,0.557-0.17,0.459-0.6c-1.062,0.354-1.793,0.034-1.985-0.89   c-0.101-0.479-0.064-0.961,0.11-1.428c0.236-0.639,0.705-0.828,1.485-0.617c0.015,0.004,0.032-0.003,0.06-0.007   c0.078-0.097,0.158-0.198,0.245-0.308c-0.644-0.423-1.526-0.322-2.007,0.212c-0.37,0.412-0.516,0.889-0.563,1.39   C22.994,24.058,23.065,24.616,23.445,25.121z M6.447,23.404c-0.502,0.754-1.001,1.506-1.524,2.294c0.213,0,0.377-0.011,0.537,0.003   c0.212,0.019,0.321-0.05,0.419-0.207c0.374-0.607,0.771-1.205,1.159-1.807c0.179-0.276,0.201-0.284,0.623-0.203   c0,0.728,0,1.462,0,2.195c0.255,0,0.476,0,0.716,0c0-0.126,0-0.232,0-0.34c0-1.786,0-3.573,0-5.36c0-0.297-0.001-0.296-0.371-0.297   c-0.341,0-0.68,0.001-1.02,0c-0.48-0.002-0.878,0.148-1.205,0.437C4.658,21.113,4.953,23,6.447,23.404z M9.747,34.543   c-0.289,0-0.556,0-0.841,0c0-2.028,0-4.036,0-6.062c-1.243,0-2.447,0-3.621,0c-0.05,1.029-0.074,2.042-0.156,3.051   c-0.073,0.896-0.271,1.775-0.667,2.622c-0.131,0.278-0.288,0.462-0.688,0.396c-0.021-0.004-0.047,0.014-0.073,0.021   c0,0.744,0,1.484,0,2.223c0.365,0,0.709,0,1.081,0c0-0.501,0-0.984,0-1.467c1.313,0,2.6,0,3.915,0c0,0.499,0,0.982,0,1.473   c0.366,0,0.702,0,1.05,0C9.747,36.046,9.747,35.304,9.747,34.543z M10.149,23.942c0.4,0,0.77,0,1.167,0c0,0.59,0,1.167,0,1.752   c0.225,0,0.42,0,0.629,0c0-1.309,0-2.604,0-3.905c-0.214,0-0.409,0-0.633,0c0,0.532,0,1.053,0,1.579c-0.402,0-0.777,0-1.182,0   c0-0.537,0-1.058,0-1.584c-0.219,0-0.409,0-0.618,0c0,1.317,0,2.611,0,3.908c0.216,0,0.411,0,0.637,0   C10.149,25.1,10.149,24.524,10.149,23.942z M15.227,34.917c-0.073-0.179-0.147-0.363-0.213-0.521   c-0.343,0.104-0.651,0.226-0.978,0.293c-1.059,0.216-1.751-0.076-2.053-0.844c-0.233-0.59-0.224-1.198-0.234-1.842   c1.16,0,2.285,0,3.456,0c-0.048-0.535-0.053-1.056-0.15-1.562c-0.123-0.633-0.367-1.241-0.872-1.751   c-0.447-0.45-0.985-0.581-1.656-0.399c-0.697,0.189-1.122,0.627-1.408,1.146c-0.838,1.523-0.91,3.091-0.268,4.673   c0.193,0.478,0.52,0.894,1.064,1.161C12.828,35.72,14.303,35.565,15.227,34.917z M15.994,25.191   c-0.16-0.006-0.296-0.012-0.46-0.018c0-1.137,0-2.259,0-3.39c-0.687,0-1.346,0-2.043,0c0,0.254,0.009,0.482-0.001,0.711   c-0.034,0.796-0.063,1.593-0.395,2.355c-0.082,0.188-0.143,0.389-0.46,0.347c0,0.424,0,0.828,0,1.23c0.2,0,0.379,0,0.589,0   c0-0.275,0-0.537,0-0.799c0.748,0,1.464,0,2.213,0c0,0.277,0,0.539,0,0.795c0.21,0,0.387,0,0.557,0   C15.994,26,15.994,25.595,15.994,25.191z M16.51,24.061c0.045,0.359,0.144,0.724,0.297,1.062c0.224,0.497,0.736,0.751,1.33,0.688   c0.287-0.03,0.574-0.111,0.844-0.205c0.301-0.105,0.309-0.2,0.101-0.422c-0.183,0.053-0.359,0.117-0.543,0.154   c-0.513,0.104-0.879-0.01-1.074-0.333c-0.229-0.378-0.218-0.784-0.204-1.209c0.658,0,1.29,0,1.935,0   c0.042-0.636-0.036-1.232-0.439-1.774c-0.354-0.476-0.967-0.552-1.454-0.161c-0.183,0.146-0.337,0.333-0.445,0.523   C16.553,22.914,16.438,23.483,16.51,24.061z M20.863,28.694c0-0.029,0.014-0.065-0.003-0.085c-0.042-0.049-0.095-0.126-0.147-0.128   c-0.319-0.013-0.64-0.007-0.992-0.007c0,0.947,0,1.884,0,2.826c-0.694,0-1.354,0-2.07,0c0-0.951,0-1.879,0-2.822   c-0.388,0-0.74,0-1.104,0c0,2.307,0,4.601,0,6.902c0.375,0,0.734,0,1.118,0c0-0.1,0-0.186,0-0.271c0-0.804-0.001-1.608,0-2.412   c0-0.444,0-0.442,0.53-0.442c0.502,0,1.004,0,1.534,0c0,1.06,0,2.09,0,3.125c0.389,0,0.749,0,1.122,0   c0.005-0.076,0.013-0.14,0.013-0.203C20.863,33.015,20.863,30.855,20.863,28.694z M22.16,25.602   c0.182,0.022,0.369,0.008,0.594,0.008c-0.448-0.683-0.866-1.326-1.294-1.967c-0.081-0.12-0.087-0.207,0.017-0.326   c0.386-0.443,0.755-0.896,1.13-1.346c0.046-0.056,0.086-0.113,0.15-0.197c-0.121,0-0.191,0.008-0.259-0.001   c-0.273-0.037-0.44,0.052-0.59,0.248c-0.329,0.432-0.694,0.844-1.046,1.263c-0.04,0.047-0.09,0.088-0.186,0.181   c0-0.601,0-1.135,0-1.68c-0.217,0-0.405,0-0.611,0c0,1.286,0,2.552,0,3.815c0.21,0,0.399,0,0.62,0c0-0.453-0.01-0.896,0.006-1.339   c0.006-0.152,0.076-0.304,0.116-0.456c0.119,0.073,0.17,0.138,0.215,0.206c0.319,0.479,0.634,0.958,0.956,1.434   C22.02,25.509,22.092,25.594,22.16,25.602z M27.033,32.544c-0.187-0.929-0.893-1.494-2.02-1.585   c-0.444-0.034-0.896-0.006-1.375-0.006c0-0.819,0-1.649,0-2.473c-0.34,0-0.648,0-0.964,0c0,2.274,0,4.534,0,6.872   c0.713,0,1.402,0.041,2.082-0.01c1.019-0.074,1.796-0.48,2.16-1.312C27.129,33.55,27.133,33.048,27.033,32.544z M32.203,28.472   c-1.382,0-2.746,0-4.137,0c0,2.313,0,4.611,0,6.908c0.347,0,0.674,0,1.023,0c0-2.07,0-4.127,0-6.212c1.053,0,2.084,0,3.112,0   C32.203,28.921,32.203,28.702,32.203,28.472z M37.219,28.464c-0.361,0-0.709,0.01-1.055-0.005c-0.18-0.007-0.261,0.044-0.322,0.181   c-0.436,0.953-0.879,1.902-1.319,2.854c-0.193,0.417-0.392,0.832-0.587,1.249c-0.019-0.003-0.035-0.006-0.053-0.009   c0-1.415,0-2.831,0-4.259c-0.388,0-0.748,0-1.119,0c0,2.312,0,4.609,0,6.912c0.371,0,0.718,0,1.098,0   c0.695-1.508,1.393-3.018,2.097-4.543c0,1.519,0,3.028,0,4.537c0.438,0,0.845,0,1.261,0C37.219,33.075,37.219,30.781,37.219,28.464   z M52.779,34.361c0.001-1.682,0.001-3.361-0.001-5.042c0-0.106-0.002-0.218-0.021-0.322c-0.067-0.375-0.381-0.6-0.84-0.606   c-0.14-0.002-0.279,0.013-0.418-0.002c-0.269-0.028-0.34,0.061-0.338,0.276c0.014,1.048,0.01,2.097,0.004,3.146   c-0.002,0.55-0.539,1.113-1.182,1.256c-2,0.441-3.998,0.886-5.999,1.32c-0.224,0.049-0.462,0.074-0.692,0.073   c-0.099,0-0.236-0.077-0.281-0.149c-0.028-0.049,0.06-0.17,0.129-0.229c0.091-0.073,0.209-0.132,0.326-0.174   c0.369-0.13,0.741-0.25,1.112-0.373c1.485-0.493,2.972-0.981,4.456-1.479c0.669-0.224,1.03-0.672,1.041-1.235   c0.034-1.823,0.016-3.648,0.01-5.473c-0.002-0.289-0.15-0.53-0.494-0.655c-0.396-0.142-0.746-0.029-1.09,0.135   c-2.101,1.003-4.203,2.004-6.305,3.005c-0.619,0.296-0.964,0.722-0.961,1.33c0.007,1.724,0.002,3.447,0.004,5.171   c0,0.085,0.009,0.174,0.036,0.254c0.207,0.586,0.743,0.922,1.485,0.924c1.481,0.002,2.963,0,4.445,0c1.473,0,2.945,0.002,4.42,0   c0.32,0,0.615-0.067,0.855-0.264C52.793,34.996,52.779,34.677,52.779,34.361z M47.178,29.208c0.562,0.001,1.133-0.528,1.062-0.985   c-0.047-0.295-0.333-0.499-0.661-0.457c-0.496,0.063-0.82,0.306-0.97,0.692C46.446,28.876,46.708,29.207,47.178,29.208z" fill="#ff9245"/>
</g>
<g>
</g>
<g>
</g>
<g>
</g>
<g>
</g>
<g>
</g>
<g>
</g>
<g>
</g>
<g>
</g>
<g>
</g>
<g>
</g>
<g>
</g>
<g>
</g>
<g>
</g>
<g>
</g>
<g>
</g>
</svg>
